<svg id="Layer_1" data-name="Layer 1" xmlns="http://www.w3.org/2000/svg" xmlns:xlink="http://www.w3.org/1999/xlink" viewBox="0 0 1000 250"><defs><style>.cls-1{fill:#333;}.cls-2{fill:url(#linear-gradient);}.cls-3{fill:#f68834;}.cls-4{fill:#f89532;}.cls-5{fill:#f36e39;}.cls-6{fill:#f58036;}.cls-7{fill:url(#linear-gradient-2);}</style><linearGradient id="linear-gradient" x1="109.86" y1="174.03" x2="224.74" y2="59.15" gradientUnits="userSpaceOnUse"><stop offset="0" stop-color="#f48632"/><stop offset="1" stop-color="#ffc518"/></linearGradient><linearGradient id="linear-gradient-2" x1="71.91" y1="169.42" x2="209.25" y2="32.08" xlink:href="#linear-gradient"/></defs><path class="cls-1" d="M368,125.83,361.08,103H329l-6.88,22.84H301l31.65-96h25.87l31.24,96.05Zm-22.7-77.06h-.69L334,85.24h22Z"/><path class="cls-1" d="M403.05,29.78H449.7c15.82,0,25.32,9.77,25.32,24.63s-8.12,20.23-17.89,20.64v.83c9.08,0,21.6,6.05,21.6,22.57,0,15.13-10.59,27.38-24.77,27.38H403.05ZM424,69.14h20.77c5.51,0,8.81-3.31,8.81-8.81V56.2c0-5.5-3.3-8.81-8.81-8.81H424Zm0,39.08h24.08c5.5,0,8.94-3.17,8.94-8.67V94.87c0-5.51-3.44-8.67-8.94-8.67H424Z"/><path class="cls-1" d="M489.46,111.93,503.22,98a31.29,31.29,0,0,0,24.08,11c10.19,0,15.14-4.54,15.14-11.56,0-5.23-2.2-9.08-11.15-10.32l-9.49-1.24c-20.23-2.61-29.45-12.52-29.45-28.62,0-17.2,13.49-29.17,36-29.17,14.45,0,25.46,4.82,33.3,13.48l-13.89,14c-4.55-5.37-10.74-9.08-20.65-9.08-9.35,0-13.89,3.58-13.89,9.36,0,6.6,3.44,9.08,11.42,10.32l9.49,1.51c19.68,3.16,29.17,12,29.17,28.48,0,18.44-13.48,31.24-37.42,31.24C509.14,127.48,497.72,121,489.46,111.93Z"/><path class="cls-1" d="M617.57,48.36v77.47H596.65V48.36h-26V29.78h72.93V48.36Z"/><path class="cls-1" d="M678.8,125.83H657.88v-96h45.55c17.75,0,29,12.39,29,30.69,0,12.93-5.78,23.25-17.47,27.66l18.85,37.7H710.58L693.8,90.6h-15Zm22-52.84c6.2,0,10.05-3.3,10.05-9.5V57.44c0-6.19-3.85-9.5-10.05-9.5h-22V73Z"/><path class="cls-1" d="M809.79,125.83,802.91,103H770.85L764,125.83H742.78l31.65-96H800.3l31.23,96.05Zm-22.7-77.06h-.69L775.8,85.24h22Z"/><path class="cls-1" d="M837,78.49c0-32.47,16.65-50.36,42.52-50.36,17.62,0,28.9,7.16,35.92,22.57l-18,9.35c-2.47-8-7.57-13.34-17.89-13.34-12.24,0-20.36,8.25-20.36,23.39V85.51c0,15.14,8.12,23.39,20.36,23.39,10.32,0,16.24-6.46,19.13-14.31l17.06,9.91c-7.15,14.59-18.57,23-36.19,23C853.68,127.48,837,111,837,78.49Z"/><path class="cls-1" d="M970.37,48.36v77.47H949.45V48.36h-26V29.78h72.93V48.36Z"/><path class="cls-1" d="M334.87,150.66v69.77h-9.39V150.66H300.66v-8.27h59v8.27Z"/><path class="cls-1" d="M394.91,220.43v-78h47.62v8.27H404.3v26.16h36v8.28h-36v27.05h38.23v8.28Z"/><path class="cls-1" d="M478.53,181.86c0-26.05,11.74-40.81,31.42-40.81,13,0,21.91,6.26,26.83,17.1l-7.6,4.59c-3.13-8.05-9.62-13.31-19.23-13.31-13.42,0-21.36,10.62-21.36,26.61v11.63c0,16,7.94,25.71,21.36,25.71,9.95,0,16.77-5.59,19.9-14.08l7.49,4.69c-4.92,11-14.43,17.78-27.39,17.78C490.27,221.77,478.53,207.91,478.53,181.86Z"/><path class="cls-1" d="M623.09,185.1H583.62v35.33h-9.39v-78h9.39v34.43h39.47V142.39h9.39v78h-9.39Z"/><path class="cls-2" d="M250.29,122c0,1,0,2,0,3,0,1.77,0,3.53-.11,5.27,0,.56,0,1.12-.08,1.67V132c0,.45,0,.9-.08,1.34,0,.11,0,.22,0,.33-.06.79-.12,1.58-.19,2.37l0,.48v0c-.09.91-.18,1.82-.29,2.73,0,0,0,.1,0,.15s0,.11,0,.16a2.36,2.36,0,0,1,0,.28c0,.33-.08.67-.12,1a.49.49,0,0,0,0,.12l0,.21-.12.92,0,.19s0,.06,0,.09c-.13.89-.26,1.79-.41,2.68a2.17,2.17,0,0,1,0,.25l-.21,1.28c-.08.43-.15.86-.24,1.29,0,.1,0,.2-.05.3-.08.4-.16.81-.23,1.2l0,.13-.24,1.19-.21,1-.21.95c-.08.34-.15.68-.24,1a.5.5,0,0,1,0,.13c-.1.45-.21.9-.32,1.34l-.27,1.1-.21.78c0,.13-.07.25-.1.38-.08.31-.17.63-.26,1l-.12.46c-.08.28-.17.57-.25.86s-.21.73-.32,1.1c-.06.22-.13.44-.2.65-.11.39-.24.78-.36,1.17l-.09.31c-.12.36-.24.72-.35,1.08h0q-.21.67-.45,1.35v0c-.15.45-.31.89-.46,1.33-.07.18-.13.36-.19.53l-.26.72-.11.3c-.32.86-.65,1.72-1,2.57a125,125,0,0,1-20.4,34.36l-.92,1.08c-.26.31-.52.62-.79.92-.54.63-1.1,1.25-1.66,1.87l-.27.3-.55.6A97.19,97.19,0,0,0,79.48,73c-1.11,1-2.21,2-3.27,3.07Q74.28,78,72.52,80a68.84,68.84,0,0,0-14.8,29.3l0,.14c-.06.25-.12.51-.17.76s-.12.54-.17.81-.11.53-.16.8c-.11.54-.2,1.08-.29,1.62,0,.27-.09.54-.13.81s-.08.46-.11.69-.1.69-.14,1c-.11.79-.2,1.58-.27,2.38,0,.27,0,.55-.07.83s-.06.7-.08,1.05a97.22,97.22,0,0,1,69.07-88.34,97.21,97.21,0,0,1,125,87.83c0,.22,0,.43,0,.64,0,.44,0,.88,0,1.32A2.71,2.71,0,0,1,250.29,122Z"/><path class="cls-3" d="M218.25,125a97.2,97.2,0,0,1-88.49,125.07,124.82,124.82,0,0,1-90.41-34A97.19,97.19,0,0,0,176.15,78.18L176,78a69.45,69.45,0,0,0-7.86-7.28l-.69-.54c-.22-.18-.45-.35-.68-.52l-.71-.53-.7-.5-.29-.21q-.86-.6-1.71-1.17l-.67-.44c-.45-.29-.9-.58-1.36-.86s-.92-.56-1.38-.82a69,69,0,0,0-31.83-9.31A97.18,97.18,0,0,1,218.25,125Z"/><path class="cls-4" d="M209.53,32.55l.33.3a97.19,97.19,0,0,0-137,137.57,68.73,68.73,0,0,0,5.25,5.41l.16.15c.26.25.53.48.8.73l.12.1.79.69,0,0,.13.12c.34.29.68.58,1,.86.77.64,1.55,1.25,2.34,1.84A68.33,68.33,0,0,0,101,189.91l.72.27c.74.26,1.47.51,2.21.75l.75.23.74.23.76.22.36.1.39.1.76.21,1,.26.42.1c.35.08.7.17,1,.24l.74.16.47.09a.37.37,0,0,0,.15,0c.68.14,1.36.26,2,.38l.81.13.68.1,1.79.24c.55.07,1.09.12,1.64.17l.83.08,1.07.08A97.19,97.19,0,0,1,119.92,0c1.74-.07,3.49-.11,5.25-.11,2.36,0,4.7.07,7,.19,1.52.09,3,.2,4.52.33l1.5.15,1.27.14.59.07,1,.13,1.2.16,1,.13.32.05,1.28.19,1.4.23c.93.16,1.86.33,2.78.51l1.4.28c.92.19,1.85.39,2.77.6s1.84.43,2.76.66q3.42.87,6.8,1.93c1.85.58,3.69,1.21,5.51,1.87A125.26,125.26,0,0,1,205.35,28.9l1.09.92.92.79c.62.55,1.25,1.1,1.86,1.66Z"/><path class="cls-5" d="M194.29,129.09A97.19,97.19,0,0,1,0,126.36c0-.44,0-.89,0-1.34s0-.9,0-1.34,0-1.13,0-1.69A124.69,124.69,0,0,1,33.66,39.62a97.18,97.18,0,0,0,137,137.61A69,69,0,0,0,194.29,129.09Z"/><path class="cls-6" d="M160.76,184.41a68.36,68.36,0,0,0,9.87-7.18,97.18,97.18,0,0,1-137-137.61l0,0A125.48,125.48,0,0,1,77.12,9.4l1.35-.55c.89-.36,1.79-.7,2.68-1l1.08-.4.91-.33,1-.36,1-.33L86.33,6h0l.93-.29.7-.22c.39-.13.79-.25,1.18-.36.94-.29,1.88-.56,2.83-.81q4.25-1.17,8.55-2c1.43-.28,2.87-.55,4.31-.78l1.27-.2.41-.07.8-.11,1-.13.43-.06.74-.1,1.15-.14h.12l1-.12.86-.08.71-.07c.2,0,.41,0,.62-.06l.78-.07L116,.18c1-.07,2-.13,3.05-.18h0l.88,0a97.19,97.19,0,0,0,.54,194.12c1.07.07,2.14.12,3.21.14h.06c1.39,0,2.79,0,4.19,0l1.26-.06,1.31-.08h.12l1.49-.13.77-.08a68.77,68.77,0,0,0,26.52-8.61Z"/><path class="cls-7" d="M250.18,118.87l0,.88a97.18,97.18,0,0,0-194.11.51c-.08,1.08-.13,2.16-.15,3.23v.06c0,1.4,0,2.79,0,4.19,0,.42,0,.84.06,1.27s.05.87.09,1.3v.13c0,.5.09,1,.14,1.48,0,.26,0,.51.08.77a68.56,68.56,0,0,0,5.41,20.18c.11.24.22.48.32.72q.49,1.08,1,2.13c.11.24.23.47.35.71l.36.7c.37.7.75,1.4,1.14,2.08.13.23.26.46.4.69a.75.75,0,0,1,.07.12c.11.19.22.38.34.56s.37.62.56.93l.41.65.3.47.12.18c.28.43.57.86.86,1.29l.44.63.38.54.14.18c.43.61.88,1.21,1.33,1.8l.49.62c.16.2.32.41.49.61.32.41.66.81,1,1.22l.62.72a97.19,97.19,0,0,1,137-137.57l0,0c.22.2.43.39.64.6l.95.89,1.1,1.06,1.09,1.08c.84.83,1.66,1.68,2.46,2.53l1.13,1.2.12.14c.32.34.63.68.94,1l.18.2,1,1.12.1.11c.62.72,1.24,1.44,1.84,2.17l.91,1.1.87,1.08.07.09q1.75,2.2,3.4,4.48s0,0,0,0q.42.57.84,1.17l.79,1.14,1.6,2.37,0,.06c.48.72.95,1.46,1.41,2.2q1.18,1.89,2.31,3.83c.18.33.37.65.55,1,.08.13.15.26.22.4l.63,1.13s.05.1.08.14l.65,1.21c.21.39.41.79.62,1.19a1.51,1.51,0,0,1,.11.22l.37.71a.77.77,0,0,1,.07.16c.06.1.11.21.17.32s0,0,0,0a2.26,2.26,0,0,1,.11.22s0,0,0,0c.18.35.35.71.52,1.06l.39.8c.11.24.23.47.33.71a2.56,2.56,0,0,1,.11.24c.17.35.33.7.49,1.05a124.9,124.9,0,0,1,10.29,36.53c.11.92.21,1.84.31,2.76l.12,1.33a1.49,1.49,0,0,1,0,.21c0,.37.07.73.09,1.1a2.28,2.28,0,0,1,0,.27l.09,1.18.06.9c0,.49.05,1,.08,1.46Z"/></svg>